<svg id="Layer_1" data-name="Layer 1" xmlns="http://www.w3.org/2000/svg" viewBox="0 0 855.3 143.6"><defs><style>.cls-1{fill:none;stroke:#434345;stroke-linecap:round;stroke-miterlimit:10;stroke-width:25px;}</style></defs><title>DexiteName</title><line class="cls-1" x1="12.5" y1="131.1" x2="12.5" y2="12.5"/><line class="cls-1" x1="12.5" y1="12.5" x2="82.5" y2="12.5"/><line class="cls-1" x1="12.5" y1="131.1" x2="82.5" y2="131.1"/><line class="cls-1" x1="84.21" y1="131.1" x2="113.83" y2="102.28"/><line class="cls-1" x1="82.5" y1="12.5" x2="113.83" y2="43.83"/><line class="cls-1" x1="315.12" y1="12.5" x2="430.5" y2="131.1"/><line class="cls-1" x1="169.65" y1="12.5" x2="259.65" y2="12.5"/><line class="cls-1" x1="169.65" y1="71.8" x2="259.65" y2="71.8"/><line class="cls-1" x1="169.65" y1="131.1" x2="259.65" y2="131.1"/><line class="cls-1" x1="481.39" y1="12.5" x2="566.39" y2="12.5"/><line class="cls-1" x1="523.89" y1="131.1" x2="523.89" y2="12.5"/><line class="cls-1" x1="481.39" y1="131.1" x2="566.39" y2="131.1"/><line class="cls-1" x1="617.1" y1="12.5" x2="702.1" y2="12.5"/><line class="cls-1" x1="659.6" y1="131.1" x2="659.6" y2="12.5"/><line class="cls-1" x1="313.51" y1="129.49" x2="432.11" y2="14.11"/><line class="cls-1" x1="114.68" y1="100.86" x2="114.68" y2="44.8"/><line class="cls-1" x1="752.8" y1="12.5" x2="842.8" y2="12.5"/><line class="cls-1" x1="752.8" y1="71.8" x2="842.8" y2="71.8"/><line class="cls-1" x1="752.8" y1="131.1" x2="842.8" y2="131.1"/></svg>