<svg id="Layer_1" data-name="Layer 1" xmlns="http://www.w3.org/2000/svg" viewBox="0 0 855.3 701.16"><defs><style>.cls-1,.cls-3,.cls-4{fill:none;}.cls-1,.cls-2,.cls-3,.cls-4{stroke:#434345;stroke-linecap:round;stroke-miterlimit:10;}.cls-1,.cls-2{stroke-width:50px;}.cls-2{fill:#00aeef;}.cls-3{stroke-width:35px;}.cls-4{stroke-width:25px;}</style></defs><title>DexiteLogoName</title><line class="cls-1" x1="45.19" y1="470.74" x2="320.19" y2="470.74"/><line class="cls-2" x1="45.19" y1="67.5" x2="320.19" y2="67.5"/><circle class="cls-3" cx="721.43" cy="67.5" r="50"/><line class="cls-4" x1="12.5" y1="688.66" x2="12.5" y2="570.06"/><line class="cls-4" x1="12.5" y1="570.06" x2="82.5" y2="570.06"/><line class="cls-4" x1="12.5" y1="688.66" x2="82.5" y2="688.66"/><line class="cls-4" x1="84.21" y1="688.66" x2="113.83" y2="659.84"/><line class="cls-4" x1="82.5" y1="570.06" x2="113.83" y2="601.39"/><line class="cls-4" x1="315.12" y1="570.06" x2="430.5" y2="688.66"/><line class="cls-4" x1="169.65" y1="570.06" x2="259.65" y2="570.06"/><line class="cls-4" x1="169.65" y1="629.36" x2="259.65" y2="629.36"/><line class="cls-4" x1="169.65" y1="688.66" x2="259.65" y2="688.66"/><line class="cls-4" x1="481.39" y1="570.06" x2="566.39" y2="570.06"/><line class="cls-4" x1="523.89" y1="688.66" x2="523.89" y2="570.06"/><line class="cls-4" x1="481.39" y1="688.66" x2="566.39" y2="688.66"/><line class="cls-4" x1="617.1" y1="570.06" x2="702.1" y2="570.06"/><line class="cls-4" x1="659.6" y1="688.66" x2="659.6" y2="570.06"/><line class="cls-4" x1="313.51" y1="687.05" x2="432.11" y2="571.67"/><line class="cls-1" x1="321.43" y1="67.5" x2="721.43" y2="467.5"/><line class="cls-1" x1="321.43" y1="469.74" x2="678.08" y2="113.09"/><line class="cls-4" x1="114.68" y1="658.42" x2="114.68" y2="602.36"/><line class="cls-4" x1="752.8" y1="570.06" x2="842.8" y2="570.06"/><line class="cls-4" x1="752.8" y1="629.36" x2="842.8" y2="629.36"/><line class="cls-4" x1="752.8" y1="688.66" x2="842.8" y2="688.66"/></svg>