<svg id="Layer_1" data-name="Layer 1" xmlns="http://www.w3.org/2000/svg" viewBox="0 0 5120 2160"><defs><style>.cls-1,.cls-3,.cls-4{fill:none;}.cls-1,.cls-2,.cls-3,.cls-4{stroke:#434345;stroke-linecap:round;stroke-miterlimit:10;}.cls-1,.cls-2{stroke-width:50px;}.cls-2{fill:#00aeef;}.cls-3{stroke-width:35px;}.cls-4{stroke-width:25px;}</style></defs><title>DexiteBanner</title><line class="cls-1" x1="2196.88" y1="1199.43" x2="2471.88" y2="1199.43"/><line class="cls-2" x1="2196.88" y1="796.19" x2="2471.88" y2="796.19"/><circle class="cls-3" cx="2873.12" cy="796.19" r="50"/><line class="cls-4" x1="2164.19" y1="1417.35" x2="2164.19" y2="1298.75"/><line class="cls-4" x1="2164.19" y1="1298.75" x2="2234.19" y2="1298.75"/><line class="cls-4" x1="2164.19" y1="1417.35" x2="2234.19" y2="1417.35"/><line class="cls-4" x1="2235.9" y1="1417.35" x2="2265.52" y2="1388.53"/><line class="cls-4" x1="2234.19" y1="1298.75" x2="2265.52" y2="1330.08"/><line class="cls-4" x1="2466.81" y1="1298.75" x2="2582.19" y2="1417.35"/><line class="cls-4" x1="2321.34" y1="1298.75" x2="2411.34" y2="1298.75"/><line class="cls-4" x1="2321.34" y1="1358.05" x2="2411.34" y2="1358.05"/><line class="cls-4" x1="2321.34" y1="1417.35" x2="2411.34" y2="1417.35"/><line class="cls-4" x1="2633.08" y1="1298.75" x2="2718.08" y2="1298.75"/><line class="cls-4" x1="2675.58" y1="1417.35" x2="2675.58" y2="1298.75"/><line class="cls-4" x1="2633.08" y1="1417.35" x2="2718.08" y2="1417.35"/><line class="cls-4" x1="2768.79" y1="1298.75" x2="2853.79" y2="1298.75"/><line class="cls-4" x1="2811.29" y1="1417.35" x2="2811.29" y2="1298.75"/><line class="cls-4" x1="2465.2" y1="1415.74" x2="2583.8" y2="1300.36"/><line class="cls-1" x1="2473.12" y1="796.19" x2="2873.12" y2="1196.19"/><line class="cls-1" x1="2473.12" y1="1198.43" x2="2829.77" y2="841.78"/><line class="cls-4" x1="2266.37" y1="1387.11" x2="2266.37" y2="1331.05"/><line class="cls-4" x1="2904.49" y1="1298.75" x2="2994.49" y2="1298.75"/><line class="cls-4" x1="2904.49" y1="1358.05" x2="2994.49" y2="1358.05"/><line class="cls-4" x1="2904.49" y1="1417.35" x2="2994.49" y2="1417.35"/></svg>